<?xml version="1.0" encoding="iso-8859-1"?>
<!-- Generator: Adobe Illustrator 19.0.0, SVG Export Plug-In . SVG Version: 6.00 Build 0)  -->
<svg version="1.1" id="Layer_1" xmlns="http://www.w3.org/2000/svg" xmlns:xlink="http://www.w3.org/1999/xlink" x="0px" y="0px"
	 viewBox="0 0 512 512" style="enable-background:new 0 0 512 512;" xml:space="preserve">
<rect x="10.199" y="189.765" style="fill:#FFD890;" width="491.602" height="250.462"/>
<path style="fill:#BDD169;" d="M280.373,315.145l-30.736-30.736l-46.635,46.635c-7.858,7.858-7.858,20.598,0,28.457l2.281,2.281
	c7.858,7.858,20.598,7.858,28.457,0L280.373,315.145z"/>
<rect x="337.679" y="71.86" transform="matrix(-0.7071 -0.7071 0.7071 -0.7071 468.34 604.7255)" style="fill:#E6E6E6;" width="43.468" height="267.013"/>
<rect x="455.817" y="74.742" transform="matrix(-0.7071 -0.7071 0.7071 -0.7071 732.4503 495.3077)" style="fill:#BDD169;" width="25.979" height="42.432"/>
<g>
	<path style="fill:#4C1D1D;" d="M501.801,179.563h-33.023c3.145-11.057,1.345-23.229-5.394-33.004l13.011-13.011
		c1.912-1.913,2.987-4.507,2.987-7.212c0-2.214-0.73-4.348-2.041-6.1l22.875-22.875c1.912-1.912,2.987-4.507,2.987-7.212
		c0-2.705-1.075-5.298-2.987-7.212l-18.371-18.371c-1.912-1.912-4.507-2.987-7.212-2.987s-5.3,1.075-7.212,2.987l-22.875,22.875
		c-3.995-2.993-9.681-2.685-13.313,0.946l-91.176,91.176H10.199C4.566,179.564,0,184.131,0,189.763v250.458
		c0,5.632,4.566,10.199,10.199,10.199h491.602c5.633,0,10.199-4.567,10.199-10.199V189.762
		C512,184.129,507.434,179.563,501.801,179.563z M446.481,179.563H430.38l18.053-18.053
		C450.886,167.374,450.231,174.228,446.481,179.563z M474.633,86.203l3.947,3.946l-15.581,15.58l-3.946-3.946L474.633,86.203z
		 M438.445,110.023l16.313,16.313L280.372,300.721l-16.313-16.313L438.445,110.023z M210.213,352.288
		c-3.869-3.869-3.869-10.163,0-14.032l39.423-39.423l16.313,16.313l-39.423,39.422c-1.874,1.875-4.365,2.908-7.016,2.908
		s-5.142-1.033-7.017-2.909L210.213,352.288z M409.981,199.962h16.524l-34.789,34.789c-3.983,3.983-3.983,10.441,0,14.425
		c1.992,1.991,4.602,2.987,7.212,2.987s5.221-0.996,7.212-2.987l49.214-49.214h36.248v230.059H20.398V199.962H319.66
		L195.789,323.833c-9.713,9.714-11.437,24.428-5.19,35.927l-8.165,8.165H64.534c-5.633,0-10.199,4.567-10.199,10.199
		c0,5.632,4.566,10.199,10.199,10.199h122.124c3.018,0,5.721-1.318,7.588-3.4l10.766-10.729c4.397,2.401,9.348,3.68,14.497,3.68
		c8.099,0,15.713-3.155,21.44-8.881L409.981,199.962z"/>
	<path style="fill:#4C1D1D;" d="M408.138,367.924h-74.516c-5.633,0-10.199,4.567-10.199,10.199c0,5.632,4.566,10.199,10.199,10.199
		h74.516c5.633,0,10.199-4.567,10.199-10.199C418.338,372.491,413.77,367.924,408.138,367.924z"/>
	<path style="fill:#4C1D1D;" d="M451.605,367.924h-6.209c-5.633,0-10.199,4.567-10.199,10.199c0,5.632,4.566,10.199,10.199,10.199
		h6.209c5.633,0,10.199-4.567,10.199-10.199C461.805,372.491,457.238,367.924,451.605,367.924z"/>
	<path style="fill:#4C1D1D;" d="M64.534,251.709h122.124c5.633,0,10.199-4.567,10.199-10.199s-4.566-10.199-10.199-10.199H64.534
		c-5.633,0-10.199,4.567-10.199,10.199S58.901,251.709,64.534,251.709z"/>
	<path style="fill:#4C1D1D;" d="M64.534,296.212h122.124c5.633,0,10.199-4.567,10.199-10.199c0-5.632-4.566-10.199-10.199-10.199
		H64.534c-5.633,0-10.199,4.567-10.199,10.199C54.335,291.645,58.901,296.212,64.534,296.212z"/>
</g>
<g>
</g>
<g>
</g>
<g>
</g>
<g>
</g>
<g>
</g>
<g>
</g>
<g>
</g>
<g>
</g>
<g>
</g>
<g>
</g>
<g>
</g>
<g>
</g>
<g>
</g>
<g>
</g>
<g>
</g>
</svg>
